<?xml version="1.0" ?><svg enable-background="new 0 0 504 504" id="Layer_1" version="1.1" viewBox="0 0 504 504" xml:space="preserve" xmlns="http://www.w3.org/2000/svg" xmlns:xlink="http://www.w3.org/1999/xlink"><path d="M457.6,256.1c-9.2,58.5-27.1,75.6-58.8,114.9c-31.7,33.3-77.3,88.9-141.9,85.8  c-58.5-9.2-75.6-27.1-114.9-58.8c-33.3-31.7-88.9-77.3-85.8-141.9c9.2-58.5,27.1-75.6,58.8-114.9c31.7-33.3,77.3-88.9,141.9-85.8  c58.5,9.2,75.6,27.1,114.9,58.8C405.1,145.9,460.7,191.5,457.6,256.1z" fill="#3765AF"/><g><path d="M282.6,122.7c7,0.8,10.4,1.6,15.5,2.6c24.7,5.2,46.4,15.9,64.1,34.1c0.6,0.6,1.2,1.3,1.8,2   c0.1,0.1,0,0.4,0.1,1c-1.8-0.5-2.9-1.8-4.2-2.7c-15-10.9-30.8-20.2-49.3-23.7c-29.7-5.6-56.9-0.4-79.6,20.8   c-14.4,13.5-22.1,30.1-18.9,50.4c1.2,7.6,4.8,14.1,9.9,19.7c2.2,2.4,2.7,4.6,2.3,7.6c-1.3,9.5-7.2,13.9-16.5,12.2   c-4.3-0.8-8.2-2.6-11.7-5.1c-7.9-5.6-13.4-13-17.1-21.8c-10.3-25-7.5-49.2,5.1-72.6c3.2-5.9,6.9-11.4,11.2-16.5   c1-1.2,1.8-2.6,3.5-3.3c0.9,1.3,0.2,2.6,0.3,3.9c0.1,4.5,1.8,6.4,6.2,6.8c3,0.2,5.8-0.5,8.6-1.4c10-3.2,19.8-7.1,29.9-9.6   c6.7-1.7,13.4-2.9,20.3-3.6" fill="#FFFFFF"/><path d="M283.9,234.3c5.7,7.2,8.4,14.6,8.8,22.8c1.2,23.5-12,45.6-34.6,55.3c-36.8,15.7-71.6,11.4-103.6-12.8   c-11.5-8.7-21.1-19.3-29.2-31.5c1.8-0.6,2.4,0.7,3.1,1.5c4.8,4.6,9.9,8.9,15.6,12.4c2.7,1.7,5.5,3.2,8.6,3.8   c4.4,0.9,7.6-1.4,8.1-5.9c0.4-3.2-0.2-6.3-1.1-9.3c-3.2-11.2-7.7-21.9-10-33.3c-2.7-13.3-2.8-26.8-2.1-40.4c1.4,2.5,1.2,5.3,1.6,8   c2.4,14.8,6.5,29.1,13.7,42.3c15,27.4,38.2,40.5,69.5,39c26-1.2,44.2-17.6,50.3-45C283,239.2,283.4,237.2,283.9,234.3z" fill="#FFFFFF"/><path d="M383.8,315.3c-0.4-1.8-0.6-3.6-1.2-5.2c-1.2-3.2-4-4-6.8-2.1c-3.2,2.2-5.4,5.4-7.8,8.4   c-11.9,14-23.6,28.2-38.4,39.4c-24.9,19-53.1,29.8-84.1,33.6c-0.9,0.1-1.8,0-3.6,0c6.6-1.7,12.3-3,17.9-4.7   c30.2-9.2,56.3-24.8,75.3-50.6c14.7-20,22.6-42.6,24.2-67.2c2.1-32.5-11.1-58.6-35.6-79.1c-10.2-8.5-22.7-12.3-35.7-14.3   c-1.2-0.2-2.5,0-3.6-0.8c-0.2-1.3,0.9-1.7,1.7-2.2c9-6.8,19.1-7.5,29.6-5.4c19.8,3.8,34.8,15.2,47.7,30.1   c17.8,20.6,25.2,44.8,25.8,71.7c0.3,15.3-1.1,30.4-4.1,45.4c-0.2,0.9-0.4,1.8-0.6,2.6C384.2,315,383.9,315.1,383.8,315.3z" fill="#FFFFFF"/><path d="M146.7,356.1c1.5-0.8,2.6-0.3,3.8,0c6.8,1.5,13.7,2.9,20.8,2.5c2.4-0.1,5-0.1,6.2-2.6   c1.3-2.7-0.1-5-1.8-7.1c-3.6-4.3-8.1-7.5-12.6-10.7c-14.6-10.2-27.2-22.3-36.7-37.4c-0.6-0.9-1.5-1.7-1.4-3.1   c1.6,0.1,2.2,1.5,3.1,2.4c21.2,21.8,46,37.3,76.4,41.6c31.1,4.4,60.6-0.7,85.5-21.2c22.5-18.6,35.5-42.4,34.7-72.4   c-0.2-6.9-1.5-13.6-3.4-20.6c2,0.4,2.4,1.7,3.1,2.7c7.5,11.5,11.3,24.2,11,37.8c-0.6,26.5-9.4,50-28.5,68.9   c-16.8,16.5-37.3,26.4-59.9,32c-34.3,8.5-67.1,3.7-98.6-11.8C147.7,356.8,147.3,356.5,146.7,356.1z" fill="#FFFFFF"/></g></svg>