<?xml version="1.0" ?><svg enable-background="new 0 0 504 504" id="Layer_1" version="1.1" viewBox="0 0 504 504" xml:space="preserve" xmlns="http://www.w3.org/2000/svg" xmlns:xlink="http://www.w3.org/1999/xlink"><path d="M452.2,251.6c-9.2,58.5-27.1,75.6-58.8,114.9c-31.7,33.3-77.3,88.9-141.9,85.8  c-58.5-9.2-75.6-27.1-114.9-58.8c-33.3-31.7-88.9-77.3-85.8-141.9c9.2-58.5,27.1-75.6,58.8-114.9c31.7-33.3,77.3-88.9,141.9-85.8  c58.5,9.2,75.6,27.1,114.9,58.8C399.7,141.4,455.3,187,452.2,251.6z" fill="#3765AF"/><g><path d="M257,230.6c0,0,0-36,36-36h108c0,0,0,36-36,36H257z" fill="#FFFFFF"/><path d="M257,276.7c0,0,0-36,36-36h54c0,0,0,36-36,36H257z" fill="#FFFFFF"/><path d="M257,322.7c0,0,0-36,36-36H311c0,0,0,36-36,36H257z" fill="#FFFFFF"/><polygon fill="#FFFFFF" points="244.9,294.6 244.9,323.3 129,323.3 203.6,221.5 139.7,221.5 139.7,192.8 260.4,192.8 186.1,294.6     "/></g></svg>