<?xml version="1.0" ?><svg enable-background="new 0 0 504 504" id="Layer_1" version="1.1" viewBox="0 0 504 504" xml:space="preserve" xmlns="http://www.w3.org/2000/svg" xmlns:xlink="http://www.w3.org/1999/xlink"><path d="M452.2,251.6c-9.2,58.5-27.1,75.6-58.8,114.9c-31.7,33.3-77.3,88.9-141.9,85.8  c-58.5-9.2-75.6-27.1-114.9-58.8c-33.3-31.7-88.9-77.3-85.8-141.9c9.2-58.5,27.1-75.6,58.8-114.9c31.7-33.3,77.3-88.9,141.9-85.8  c58.5,9.2,75.6,27.1,114.9,58.8C399.7,141.4,455.3,187,452.2,251.6z" fill="#3765AF"/><g><path clip-rule="evenodd" d="M273.8,210.5c-10.9-30.7,20.9-63.6,47.1-64.5   c15.7,8,29.2,29,28.5,57.4c-2.1,35.1-27.5,65.3-55.1,93.1C292.7,262.6,285.4,240.9,273.8,210.5L273.8,210.5z" fill="#FFFFFF" fill-rule="evenodd"/><path clip-rule="evenodd" d="M212.1,376.6c-4.4-34.2,9.9-63.4,24-81.3c6.7-8.4,11.9-16,15.8-23   c7.4,3.1,27.4,13.4,38.4,30C288.7,326.4,270.5,370.2,212.1,376.6L212.1,376.6z" fill="#FFFFFF" fill-rule="evenodd"/><path clip-rule="evenodd" d="M190,246.6c-46.5-12.7-57.9-52.5-55.8-79.3   c45.1-17.9,93.7,0.4,121.7,38.5c19.7,26.7,32,60.9,34.5,90.8c-13.5-17.4-30.5-27.4-52.2-35.3C223.3,255.9,209.6,252.4,190,246.6   L190,246.6z" fill="#FFFFFF" fill-rule="evenodd"/></g></svg>